<?xml version="1.0" encoding="UTF-8"?>
<svg width="45px" height="45px" viewBox="0 0 45 45" version="1.1" xmlns="http://www.w3.org/2000/svg" xmlns:xlink="http://www.w3.org/1999/xlink">
    <!-- Generator: Sketch 64 (93537) - https://sketch.com -->
    <title>logo</title>
    <desc>Created with Sketch.</desc>
    <g id="Page-1" stroke="none" stroke-width="1" fill="none" fill-rule="evenodd">
        <g id="Desktop" transform="translate(-490.000000, -3699.000000)" fill="#202B31">
            <g id="footer" transform="translate(0.000000, 3692.000000)">
                <path d="M529.576923,48 L495.423077,48 C494.637538,48 494,47.356 494,46.5625 L494,25 L499.692308,25 C498.950885,26.078125 498.700423,28.0891875 498.700423,29.3656875 C498.700423,37.0635 504.915,43.3266875 512.552654,43.3266875 C520.191731,43.3266875 526.406308,37.0635 526.406308,29.3656875 C526.406308,28.0891875 526.227,26.1083125 525.307692,25 L531,25 L531,46.5625 C531,47.356 530.362462,48 529.576923,48 M512.499309,21 C517.194442,21 521,24.8059288 521,29.4993078 C521,34.1940712 517.194442,38 512.499309,38 C507.805558,38 504,34.1940712 504,29.4993078 C504,24.8059288 507.805558,21 512.499309,21 M523.4,13 L527.6,13 C528.3728,13 529,13.6272 529,14.4 L529,18.6 C529,19.3728 528.3728,20 527.6,20 L523.4,20 C522.6272,20 522,19.3728 522,18.6 L522,14.4 C522,13.6272 522.6272,13 523.4,13 M529.650625,7 L495.349375,7 C492.394844,7 490,9.38921875 490,12.3367187 L490,46.6632813 C490,49.6107813 492.394844,52 495.349375,52 L529.650625,52 C532.605156,52 535,49.6107813 535,46.6632813 L535,12.3367187 C535,9.38921875 532.605156,7 529.650625,7" id="logo"></path>
            </g>
        </g>
    </g>
</svg>